<svg xmlns="http://www.w3.org/2000/svg" width="512" height="512" viewBox="0 0 512 512"><rect width="512" height="512" fill="#d8d9d7"/><polyline points="16.1,-20 17.1,-16 18.7,-12 20.9,-8 23.7,-4 26.9,0 30.1,4 32.9,8 35.1,12 36.6,16 37.7,20 38.5,24 39.4,28 40.7,32 42.6,36 45.0,40 47.6,44 50.1,48 52.2,52 53.5,56 54.2,60 54.2,64 54.0,68 53.8,72 54.0,76 54.7,80 55.9,84 57.3,88 58.6,92 59.5,96 59.7,100 59.2,104 58.1,108 56.8,112 55.7,116 54.9,120 54.8,124 55.2,128 55.9,132 56.6,136 57.0,140 56.8,144 55.9,148 54.7,152 53.2,156 52.0,160 51.3,164 51.3,168 51.9,172 52.9,176 53.9,180 54.7,184 54.9,188 54.6,192 53.8,196 52.9,200 52.2,204 52.1,208 52.7,212 53.8,216 55.3,220 56.8,224 58.0,228 58.6,232 58.6,236 58.1,240 57.4,244 56.8,248 56.7,252 57.2,256 58.2,260 59.4,264 60.6,268 61.3,272 61.4,276 60.7,280 59.5,284 58.0,288 56.5,292 55.5,296 54.9,300 54.8,304 54.9,308 54.9,312 54.5,316 53.3,320 51.4,324 49.0,328 46.2,332 43.6,336 41.4,340 39.7,344 38.5,348 37.7,352 36.7,356 35.4,360 33.5,364 30.9,368 27.8,372 24.6,376 21.6,380 19.2,384 17.4,388 16.2,392 15.4,396 14.7,400 13.7,404 12.2,408 10.1,412 7.7,416 5.2,420 3.0,424 1.5,428 0.6,432 0.5,436 0.8,440 1.1,444 1.3,448 0.9,452 0.0,456 -1.2,460 -2.5,464 -3.6,468 -4.0,472 -3.8,476 -2.9,480 -1.7,484 -0.4,488 0.5,492 0.9,496 0.7,500 0.0,504 -0.8,508 -1.4,512 -1.6,516 -1.2,520 -0.2,524 1.1,528 2.3,532 3.1,536" fill="none" stroke="#a7aaa9" stroke-opacity=".24" stroke-width="1.3"/><polyline points="163.7,-20 163.7,-16 164.2,-12 165.1,-8 166.0,-4 166.6,0 166.6,4 165.9,8 164.7,12 163.2,16 161.8,20 160.8,24 160.4,28 160.6,32 161.3,36 162.1,40 162.6,44 162.7,48 162.2,52 161.2,56 159.9,60 158.9,64 158.3,68 158.3,72 159.1,76 160.3,80 161.6,84 162.7,88 163.3,92 163.4,96 162.9,100 162.2,104 161.6,108 161.4,112 161.8,116 162.9,120 164.3,124 165.8,128 167.0,132 167.6,136 167.5,140 166.9,144 165.9,148 164.9,152 164.3,156 164.2,160 164.6,164 165.3,168 165.9,172 166.2,176 165.9,180 164.8,184 163.0,188 160.9,192 158.8,196 156.9,200 155.6,204 154.8,208 154.3,212 153.7,216 152.9,220 151.4,224 149.2,228 146.4,232 143.3,236 140.2,240 137.6,244 135.5,248 134.0,252 133.0,256 132.0,260 130.8,264 129.1,268 126.8,272 124.0,276 121.0,280 118.2,284 115.9,288 114.4,292 113.5,296 113.1,300 112.9,304 112.5,308 111.7,312 110.4,316 108.6,320 106.8,324 105.1,328 104.0,332 103.5,336 103.8,340 104.6,344 105.6,348 106.4,352 106.7,356 106.4,360 105.7,364 104.7,368 104.0,372 103.6,376 104.0,380 104.9,384 106.2,388 107.7,392 108.8,396 109.4,400 109.3,404 108.7,408 107.8,412 106.9,416 106.4,420 106.5,424 107.2,428 108.2,432 109.2,436 109.8,440 109.9,444 109.3,448 108.1,452 106.6,456 105.2,460 104.2,464 103.8,468 103.9,472 104.4,476 105.0,480 105.3,484 105.1,488 104.3,492 102.9,496 101.4,500 100.0,504 99.1,508 98.9,512 99.3,516 100.2,520 101.3,524 102.2,528 102.7,532 102.6,536" fill="none" stroke="#a7aaa9" stroke-opacity=".24" stroke-width="0.7"/><polyline points="268.5,-20 269.8,-16 271.3,-12 272.7,-8 273.5,-4 273.8,0 273.4,4 272.7,8 272.0,12 271.6,16 271.7,20 272.4,24 273.5,28 274.7,32 275.6,36 276.0,40 275.7,44 274.7,48 273.2,52 271.7,56 270.3,60 269.5,64 269.1,68 269.1,72 269.2,76 269.0,80 268.2,84 266.7,88 264.4,92 261.8,96 259.0,100 256.5,104 254.5,108 253.1,112 252.1,116 251.2,120 250.1,124 248.5,128 246.3,132 243.5,136 240.3,140 237.1,144 234.4,148 232.2,152 230.7,156 229.8,160 229.1,164 228.3,168 227.1,172 225.3,176 223.1,180 220.6,184 218.3,188 216.4,192 215.2,196 214.7,200 214.8,204 215.2,208 215.6,212 215.5,216 215.0,220 213.9,224 212.6,228 211.4,232 210.7,236 210.6,240 211.2,244 212.3,248 213.7,252 214.9,256 215.6,260 215.8,264 215.4,268 214.6,272 213.9,276 213.5,280 213.7,284 214.4,288 215.6,292 217.0,296 218.1,300 218.7,304 218.6,308 217.8,312 216.7,316 215.6,320 214.7,324 214.4,328 214.6,332 215.3,336 216.0,340 216.6,344 216.6,348 216.0,352 214.8,356 213.2,360 211.6,364 210.4,368 209.8,372 209.8,376 210.4,380 211.1,384 211.7,388 211.9,392 211.4,396 210.5,400 209.4,404 208.3,408 207.7,412 207.8,416 208.6,420 210.0,424 211.7,428 213.3,432 214.5,436 215.2,440 215.5,444 215.5,448 215.7,452 216.3,456 217.6,460 219.7,464 222.3,468 225.2,472 227.9,476 230.2,480 232.0,484 233.2,488 234.1,492 235.1,496 236.5,500 238.4,504 241.0,508 244.1,512 247.2,516 250.2,520 252.5,524 254.3,528 255.3,532 256.0,536" fill="none" stroke="#a7aaa9" stroke-opacity=".24" stroke-width="1.1"/><polyline points="254.0,-20 253.3,-16 252.2,-12 250.3,-8 247.8,-4 244.8,0 241.6,4 238.7,8 236.3,12 234.6,16 233.3,20 232.4,24 231.3,28 229.9,32 227.9,36 225.4,40 222.5,44 219.6,48 217.0,52 215.0,56 213.8,60 213.2,64 213.0,68 212.8,72 212.2,76 211.2,80 209.7,84 207.9,88 206.1,92 204.7,96 203.9,100 203.9,104 204.5,108 205.5,112 206.4,116 207.0,120 207.1,124 206.7,128 205.8,132 205.0,136 204.4,140 204.5,144 205.1,148 206.4,152 207.9,156 209.2,160 210.2,164 210.5,168 210.2,172 209.5,176 208.6,180 207.9,184 207.8,188 208.2,192 209.1,196 210.2,200 211.1,204 211.6,208 211.4,212 210.5,216 209.2,220 207.8,224 206.6,228 205.9,232 205.8,236 206.2,240 206.9,244 207.4,248 207.6,252 207.1,256 206.0,260 204.6,264 203.2,268 202.0,272 201.5,276 201.6,280 202.4,284 203.5,288 204.6,292 205.3,296 205.6,300 205.3,304 204.7,308 204.2,312 204.1,316 204.6,320 205.9,324 207.8,328 210.1,332 212.4,336 214.4,340 215.9,344 216.8,348 217.5,352 218.1,356 219.1,360 220.7,364 223.0,368 225.9,372 229.1,376 232.2,380 234.8,384 236.9,388 238.3,392 239.4,396 240.3,400 241.4,404 243.1,408 245.3,412 248.0,416 250.9,420 253.5,424 255.7,428 257.1,432 257.9,436 258.1,440 258.1,444 258.3,448 259.0,452 260.2,456 261.7,460 263.5,464 265.0,468 265.9,472 266.2,476 265.8,480 264.9,484 263.8,488 262.9,492 262.6,496 262.8,500 263.5,504 264.3,508 265.1,512 265.4,516 265.1,520 264.2,524 262.8,528 261.5,532 260.4,536" fill="none" stroke="#a7aaa9" stroke-opacity=".24" stroke-width="1.0"/><polyline points="56.7,-20 56.5,-16 55.7,-12 54.6,-8 53.3,-4 52.3,0 51.9,4 52.2,8 53.2,12 54.5,16 55.9,20 56.9,24 57.4,28 57.4,32 56.8,36 56.1,40 55.5,44 55.4,48 56.0,52 57.0,56 58.4,60 59.7,64 60.7,68 61.0,72 60.6,76 59.7,80 58.6,84 57.6,88 57.0,92 57.0,96 57.6,100 58.4,104 59.1,108 59.5,112 59.3,116 58.4,120 57.0,124 55.5,128 54.1,132 53.2,136 53.0,140 53.3,144 54.1,148 54.8,152 55.3,156 55.2,160 54.6,164 53.6,168 52.5,172 51.7,176 51.4,180 51.9,184 53.1,188 54.7,192 56.4,196 57.9,200 58.9,204 59.4,208 59.5,212 59.6,216 60.0,220 61.0,224 62.7,228 65.1,232 67.9,236 70.7,240 73.3,244 75.4,248 76.9,252 77.9,256 78.9,260 80.0,264 81.6,268 83.9,272 86.7,276 89.9,280 93.0,284 95.7,288 97.7,292 99.1,296 99.9,300 100.5,304 101.2,308 102.3,312 103.9,316 106.0,320 108.3,324 110.5,328 112.2,332 113.3,336 113.6,340 113.3,344 112.7,348 112.2,352 112.1,356 112.6,360 113.5,364 114.7,368 115.7,372 116.4,376 116.4,380 115.7,384 114.5,388 113.2,392 111.9,396 111.2,400 111.1,404 111.5,408 112.3,412 113.1,416 113.5,420 113.4,424 112.7,428 111.6,432 110.4,436 109.4,440 108.9,444 109.1,448 110.0,452 111.3,456 112.5,460 113.5,464 114.0,468 113.8,472 113.3,476 112.6,480 112.1,484 112.2,488 112.9,492 114.2,496 115.8,500 117.4,504 118.6,508 119.2,512 119.1,516 118.5,520 117.7,524 117.1,528 116.9,532 117.2,536" fill="none" stroke="#a7aaa9" stroke-opacity=".24" stroke-width="0.8"/><polyline points="359.7,-20 358.7,-16 357.3,-12 356.0,-8 355.0,-4 354.7,0 354.9,4 355.5,8 356.3,12 356.7,16 356.6,20 355.9,24 354.7,28 353.3,32 351.9,36 351.1,40 351.0,44 351.5,48 352.5,52 353.7,56 354.7,60 355.2,64 355.3,68 354.9,72 354.3,76 354.0,80 354.2,84 355.1,88 356.8,92 358.9,96 361.3,100 363.5,104 365.3,108 366.5,112 367.3,116 368.0,120 368.7,124 370.0,128 372.0,132 374.6,136 377.7,140 380.8,144 383.8,148 386.2,152 387.9,156 389.1,160 390.1,164 391.0,168 392.4,172 394.3,176 396.8,180 399.6,184 402.4,188 404.8,192 406.6,196 407.7,200 408.1,204 408.2,208 408.3,212 408.6,216 409.5,220 410.8,224 412.5,228 414.1,232 415.4,236 416.0,240 415.9,244 415.1,248 414.1,252 413.0,256 412.3,260 412.2,264 412.6,268 413.4,272 414.2,276 414.7,280 414.7,284 414.0,288 412.8,292 411.3,296 410.0,300 409.1,304 408.9,308 409.3,312 410.2,316 411.1,320 411.9,324 412.2,328 411.9,332 411.1,336 410.1,340 409.3,344 408.9,348 409.3,352 410.2,356 411.6,360 413.2,364 414.5,368 415.2,372 415.4,376 415.0,380 414.4,384 413.8,388 413.7,392 414.2,396 415.2,400 416.6,404 418.0,408 419.1,412 419.5,416 419.3,420 418.4,424 417.2,428 416.0,432 415.1,436 414.7,440 414.8,444 415.2,448 415.5,452 415.5,456 414.8,460 413.3,464 411.2,468 408.8,472 406.3,476 404.2,480 402.6,484 401.5,488 400.8,492 400.0,496 398.9,500 397.2,504 394.8,508 391.9,512 388.7,516 385.6,520 383.0,524 380.9,528 379.5,532 378.6,536" fill="none" stroke="#a7aaa9" stroke-opacity=".24" stroke-width="0.9"/><polyline points="348.3,-20 348.6,-16 349.2,-12 350.6,-8 352.6,-4 355.3,0 358.2,4 361.0,8 363.3,12 365.1,16 366.4,20 367.4,24 368.4,28 369.7,32 371.6,36 374.2,40 377.2,44 380.4,48 383.3,52 385.7,56 387.4,60 388.5,64 389.2,68 389.7,72 390.6,76 391.9,80 393.7,84 395.9,88 398.2,92 400.2,96 401.6,100 402.2,104 402.1,108 401.6,112 401.0,116 400.7,120 400.8,124 401.4,128 402.5,132 403.6,136 404.5,140 404.8,144 404.4,148 403.4,152 402.0,156 400.6,160 399.6,164 399.1,168 399.2,172 399.8,176 400.5,180 401.1,184 401.3,188 400.8,192 399.8,196 398.6,200 397.3,204 396.5,208 396.3,212 396.8,216 397.9,220 399.1,224 400.2,228 400.9,232 401.0,236 400.6,240 399.9,244 399.2,248 398.9,252 399.2,256 400.1,260 401.6,264 403.2,268 404.6,272 405.4,276 405.7,280 405.3,284 404.5,288 403.7,292 403.1,296 403.1,300 403.7,304 404.6,308 405.5,312 406.2,316 406.3,320 405.7,324 404.4,328 402.6,332 400.7,336 399.1,340 397.9,344 397.2,348 396.9,352 396.7,356 396.1,360 395.0,364 393.1,368 390.6,372 387.7,376 384.7,380 382.1,384 379.9,388 378.4,392 377.3,396 376.3,400 375.2,404 373.6,408 371.3,412 368.5,416 365.4,420 362.4,424 359.8,428 357.8,432 356.6,436 355.9,440 355.4,444 354.9,448 353.9,452 352.4,456 350.5,460 348.4,464 346.3,468 344.8,472 343.9,476 343.8,480 344.3,484 345.0,488 345.6,492 345.8,496 345.5,500 344.6,504 343.6,508 342.6,512 342.0,516 342.1,520 342.8,524 344.0,528 345.4,532 346.6,536" fill="none" stroke="#a7aaa9" stroke-opacity=".24" stroke-width="1.4"/><polyline points="531.8,-20 532.3,-16 533.4,-12 534.9,-8 536.5,-4 538.0,0 538.9,4 539.1,8 538.7,12 537.7,16 536.5,20 535.6,24 535.1,28 535.1,32 535.7,36 536.5,40 537.2,44 537.4,48 537.0,52 536.0,56 534.6,60 533.1,64 531.9,68 531.2,72 531.3,76 531.9,80 532.8,84 533.6,88 534.1,92 534.1,96 533.5,100 532.5,104 531.5,108 530.8,112 530.7,116 531.3,120 532.5,124 533.9,128 535.3,132 536.3,136 536.7,140 536.5,144 536.0,148 535.3,152 534.9,156 534.9,160 535.6,164 536.8,168 538.2,172 539.5,176 540.2,180 540.3,184 539.6,188 538.5,192 537.2,196 536.1,200 535.4,204 535.2,208 535.4,212 535.8,216 536.0,220 535.6,224 534.5,228 532.7,232 530.4,236 527.8,240 525.5,244 523.6,248 522.2,252 521.3,256 520.6,260 519.7,264 518.3,268 516.2,272 513.6,276 510.5,280 507.3,284 504.3,288 502.0,292 500.2,296 499.1,300 498.2,304 497.3,308 496.0,312 494.2,316 491.8,320 489.2,324 486.5,328 484.2,332 482.6,336 481.7,340 481.4,344 481.5,348 481.6,352 481.4,356 480.7,360 479.5,364 478.0,368 476.5,372 475.4,376 474.9,380 475.2,384 476.0,388 477.2,392 478.3,396 479.1,400 479.2,404 478.9,408 478.1,412 477.3,416 476.8,420 476.8,424 477.4,428 478.6,432 480.0,436 481.2,440 482.0,444 482.2,448 481.6,452 480.7,456 479.6,460 478.7,464 478.3,468 478.5,472 479.2,476 480.0,480 480.7,484 481.0,488 480.5,492 479.5,496 477.9,500 476.3,504 475.0,508 474.2,512 474.0,516 474.4,520 475.0,524 475.5,528 475.6,532 475.2,536" fill="none" stroke="#a7aaa9" stroke-opacity=".24" stroke-width="1.6"/><polyline points="88.4,-20 89.1,-16 90.2,-12 91.4,-8 92.3,-4 92.6,0 92.4,4 91.8,8 91.0,12 90.4,16 90.3,20 90.8,24 92.0,28 93.5,32 95.0,36 96.1,40 96.6,44 96.5,48 95.8,52 94.9,56 94.2,60 93.8,64 94.0,68 94.7,72 95.7,76 96.5,80 96.9,84 96.6,88 95.6,92 93.9,96 92.0,100 90.2,104 88.7,108 87.8,112 87.3,116 87.0,120 86.6,124 85.8,128 84.3,132 82.1,136 79.4,140 76.4,144 73.5,148 71.0,152 69.2,156 67.9,160 66.9,164 65.9,168 64.5,172 62.6,176 60.0,180 57.1,184 54.0,188 51.1,192 48.8,196 47.2,200 46.3,204 45.7,208 45.3,212 44.6,216 43.4,220 41.8,224 39.7,228 37.6,232 35.8,236 34.6,240 34.1,244 34.3,248 35.0,252 35.8,256 36.2,260 36.2,264 35.7,268 34.8,272 33.7,276 32.9,280 32.7,284 33.1,288 34.2,292 35.6,296 37.0,300 38.0,304 38.5,308 38.3,312 37.7,316 36.8,320 36.2,324 35.9,328 36.3,332 37.2,336 38.4,340 39.5,344 40.2,348 40.2,352 39.6,356 38.4,360 37.1,364 35.8,368 35.1,372 34.9,376 35.2,380 35.8,384 36.4,388 36.7,392 36.3,396 35.3,400 33.9,404 32.3,408 30.9,412 30.0,416 29.9,420 30.3,424 31.2,428 32.1,432 32.7,436 32.8,440 32.4,444 31.6,448 30.7,452 30.2,456 30.3,460 31.1,464 32.6,468 34.5,472 36.6,476 38.4,480 39.7,484 40.5,488 41.0,492 41.4,496 42.1,500 43.4,504 45.3,508 48.0,512 51.0,516 54.0,520 56.8,524 58.9,528 60.5,532 61.6,536" fill="none" stroke="#a7aaa9" stroke-opacity=".24" stroke-width="0.8"/><polyline points="442.4,-20 442.7,-16 442.6,-12 441.9,-8 440.4,-4 438.2,0 435.7,4 433.2,8 431.0,12 429.4,16 428.2,20 427.4,24 426.6,28 425.5,32 423.8,36 421.5,40 418.5,44 415.3,48 412.2,52 409.5,56 407.5,60 406.1,64 405.1,68 404.3,72 403.2,76 401.7,80 399.6,84 397.1,88 394.4,92 391.9,96 389.9,100 388.6,104 388.1,108 388.1,112 388.3,116 388.3,120 387.9,124 386.9,128 385.6,132 384.1,136 382.8,140 382.0,144 381.9,148 382.5,152 383.6,156 384.9,160 385.9,164 386.4,168 386.4,172 385.8,176 385.1,180 384.4,184 384.2,188 384.5,192 385.5,196 386.9,200 388.3,204 389.4,208 390.0,212 389.8,216 389.1,220 388.1,224 387.1,228 386.5,232 386.5,236 387.0,240 387.8,244 388.7,248 389.3,252 389.3,256 388.5,260 387.3,264 385.7,268 384.3,272 383.2,276 382.8,280 382.9,284 383.5,288 384.2,292 384.6,296 384.5,300 383.9,304 382.7,308 381.4,312 380.2,316 379.6,320 379.7,324 380.4,328 381.7,332 383.1,336 384.4,340 385.3,344 385.6,348 385.5,352 385.3,356 385.3,360 385.8,364 387.1,368 389.1,372 391.6,376 394.3,380 396.8,384 398.8,388 400.3,392 401.3,396 402.1,400 403.1,404 404.5,408 406.6,412 409.3,416 412.5,420 415.6,424 418.5,428 420.9,432 422.5,436 423.6,440 424.4,444 425.2,448 426.4,452 428.1,456 430.4,460 432.9,464 435.4,468 437.5,472 439.0,476 439.7,480 439.8,484 439.6,488 439.3,492 439.4,496 439.9,500 441.0,504 442.4,508 443.7,512 444.7,516 445.0,520 444.7,524 443.7,528 442.5,532 441.3,536" fill="none" stroke="#a7aaa9" stroke-opacity=".24" stroke-width="1.2"/><polyline points="20.5,-20 19.6,-16 18.2,-12 16.4,-8 14.3,-4 12.3,0 10.8,4 10.0,8 9.9,12 10.4,16 11.2,20 11.9,24 12.2,28 12.0,32 11.3,36 10.3,40 9.4,44 8.9,48 9.0,52 9.8,56 11.1,60 12.6,64 13.9,68 14.7,72 15.0,76 14.6,80 13.9,84 13.1,88 12.7,92 12.8,96 13.5,100 14.6,104 15.8,108 16.8,112 17.3,116 17.1,120 16.2,124 15.0,128 13.7,132 12.7,136 12.3,140 12.4,144 13.0,148 13.7,152 14.2,156 14.2,160 13.6,164 12.4,168 10.9,172 9.4,176 8.3,180 7.8,184 8.0,188 8.8,192 9.7,196 10.6,200 11.0,204 10.9,208 10.3,212 9.5,216 8.8,220 8.6,224 9.1,228 10.3,232 12.1,236 14.1,240 16.1,244 17.8,248 18.9,252 19.5,256 19.9,260 20.4,264 21.4,268 23.0,272 25.4,276 28.2,280 31.3,284 34.3,288 36.8,292 38.6,296 40.0,300 41.0,304 42.0,308 43.3,312 45.2,316 47.7,320 50.6,324 53.6,328 56.4,332 58.5,336 60.0,340 60.8,344 61.2,348 61.5,352 62.0,356 63.0,360 64.6,364 66.5,368 68.4,372 70.0,376 71.1,380 71.4,384 71.0,388 70.2,392 69.3,396 68.7,400 68.6,404 69.1,408 69.9,412 70.9,416 71.6,420 71.8,424 71.4,428 70.3,432 68.9,436 67.5,440 66.5,444 66.1,448 66.3,452 67.1,456 68.0,460 68.8,464 69.1,468 68.8,472 68.0,476 67.0,480 66.0,484 65.4,488 65.5,492 66.3,496 67.5,500 69.0,504 70.3,508 71.2,512 71.5,516 71.2,520 70.6,524 70.1,528 69.9,532 70.3,536" fill="none" stroke="#a7aaa9" stroke-opacity=".24" stroke-width="1.3"/><polyline points="486.6,-20 486.2,-16 485.3,-12 484.3,-8 483.6,-4 483.3,0 483.6,4 484.3,8 485.3,12 486.1,16 486.5,20 486.2,24 485.3,28 483.9,32 482.4,36 481.1,40 480.4,44 480.3,48 480.8,52 481.5,56 482.1,60 482.4,64 482.1,68 481.2,72 480.0,76 478.8,80 477.9,84 477.6,88 478.0,92 479.1,96 480.6,100 482.0,104 483.1,108 483.8,112 483.9,116 483.8,120 483.6,124 483.9,128 484.8,132 486.5,136 488.8,140 491.4,144 494.1,148 496.4,152 498.2,156 499.4,160 500.3,164 501.2,168 502.4,172 504.1,176 506.5,180 509.5,184 512.7,188 515.8,192 518.4,196 520.4,200 521.8,204 522.7,208 523.4,212 524.4,216 525.8,220 527.7,224 530.1,228 532.7,232 535.0,236 536.8,240 537.9,244 538.3,248 538.2,252 537.8,256 537.6,260 537.9,264 538.7,268 539.9,272 541.3,276 542.4,280 543.1,284 543.1,288 542.4,292 541.2,296 539.9,300 538.8,304 538.2,308 538.3,312 538.8,316 539.6,320 540.3,324 540.5,328 540.2,332 539.3,336 538.0,340 536.7,344 535.6,348 535.2,352 535.5,356 536.3,360 537.4,364 538.5,368 539.3,372 539.4,376 539.0,380 538.3,384 537.5,388 537.1,392 537.2,396 538.0,400 539.3,404 540.9,408 542.4,412 543.5,416 544.0,420 543.8,424 543.3,428 542.6,432 542.1,436 542.1,440 542.8,444 543.8,448 545.0,452 546.1,456 546.6,460 546.4,464 545.5,468 544.1,472 542.5,476 541.0,480 540.0,484 539.6,488 539.5,492 539.5,496 539.3,500 538.6,504 537.2,508 535.0,512 532.4,516 529.6,520 527.0,524 524.9,528 523.3,532 522.2,536" fill="none" stroke="#a7aaa9" stroke-opacity=".24" stroke-width="1.5"/></svg>